<svg version="1.2" xmlns="http://www.w3.org/2000/svg" viewBox="0 0 810 811" width="85" height="85">
	<title>apna-svg</title>
	<style>
		.s0 { fill: #000000 } 
		.s1 { fill: #ffa511 } 
	</style>
	<g id="Layer">
		<g id="Layer">
			<g id="Layer">
				<path id="Layer" fill-rule="evenodd" class="s0" d="m263.2 223.8l54.3 134.6h-32.9l-10-26.9h-51.3l-9.9 26.9h-33l54.4-134.6zm0.9 80.8l-15-39.2h-0.3l-15 39.2z"/>
			</g>
		</g>
	</g>
	<g id="Layer">
		<g id="Layer">
			<g id="Layer">
				<path id="Layer" fill-rule="evenodd" class="s0" d="m311.3 223.8h49.1q20.6 0 33.3 10.6 12.7 10.6 12.7 30.8 0 20.3-12.9 31.8-12.8 11.5-33.1 11.5h-18.4v49.9h-30.7zm30.7 60.2h8.6q10.3 0 16.9-4.1 6.6-4.2 6.6-13.7 0-9.6-6.6-13.7-6.6-4.2-16.9-4.2h-8.6z"/>
			</g>
		</g>
	</g>
	<g id="Layer">
		<g id="Layer">
			<g id="Layer">
				<path id="Layer" class="s0" d="m439.2 274.9v83.5h-30.6v-134.6h30.6l53.6 83.5h0.3v-83.5h30.7v134.6h-30.7l-53.5-83.5z"/>
			</g>
		</g>
	</g>
	<g id="Layer">
		<g id="Layer">
			<g id="Layer">
				<path id="Layer" fill-rule="evenodd" class="s0" d="m600.3 223.8l54.4 134.6h-33l-10-26.9h-51.2l-10 26.9h-32.9l54.3-134.6zm1 80.8l-15-39.2h-0.4l-15 39.2z"/>
			</g>
		</g>
	</g>
	<g id="Layer">
		<g id="Layer">
			<g id="Layer">
				<path id="Layer" class="s1" d="m145.8 492.5q7 0 13.6-2.1 6.6-2.1 9.7-4.1l3.1-2.1 13.1 26.1q-0.7 0.5-1.8 1.3-1.2 0.8-5.3 3-4.2 2.2-8.9 3.9-4.7 1.6-12.4 2.9-7.7 1.3-15.8 1.3-18.8 0-35.6-9.2-16.8-9.3-27.1-25.4-10.3-16.2-10.3-34.9 0-14.2 6-27.3 6.1-13 16.1-22.3 10.1-9.3 23.4-14.9 13.4-5.5 27.5-5.5 13 0 24 3.1 11 3.1 15.6 6.2l4.6 3.1-13.1 26.1q-1.1-1-3.4-2.4-2.3-1.4-9.2-3.7-6.8-2.3-13.8-2.3-11.1 0-19.9 3.6-8.8 3.6-14 9.5-5.1 5.9-7.8 12.7-2.7 6.7-2.7 13.7 0 15.4 11.5 27.5 11.5 12.2 32.9 12.2z"/>
			</g>
		</g>
	</g>
	<g id="Layer">
		<g id="Layer">
			<g id="Layer">
				<path id="Layer" fill-rule="evenodd" class="s1" d="m179.6 452.8q0-29.2 19.9-49.4 19.9-20.2 47.9-20.2 28.3 0 48 20.1 19.8 20.2 19.8 49.5 0 29.6-19.5 49.7-19.4 20.2-48.3 20.2-29.5 0-48.7-20-19.1-20-19.1-49.9zm33.1 0q0 10.6 3.2 19.4 3.3 8.7 11.5 14.8 8.1 6 20 6 17.2 0 25.9-11.8 8.7-11.7 8.7-28.4 0-16.4-8.9-28.3-8.8-11.8-25.7-11.8-16.6 0-25.7 11.8-9 11.9-9 28.3z"/>
			</g>
		</g>
	</g>
	<g id="Layer">
		<g id="Layer">
			<g id="Layer">
				<path id="Layer" class="s1" d="m348 385.6v107.7h46.3v26.9h-77v-134.6z"/>
			</g>
		</g>
	</g>
	<g id="Layer">
		<g id="Layer">
			<g id="Layer">
				<path id="Layer" class="s1" d="m428.7 385.6v107.7h46.4v26.9h-77v-134.6z"/>
			</g>
		</g>
	</g>
	<g id="Layer">
		<g id="Layer">
			<g id="Layer">
				<path id="Layer" class="s1" d="m555.9 385.6v26.9h-46.4v26.8h44.4v26.9h-44.4v27.1h46.4v26.9h-77.1v-134.6z"/>
			</g>
		</g>
	</g>
	<g id="Layer">
		<g id="Layer">
			<g id="Layer">
				<path id="Layer" class="s1" d="m683.8 444.8v29.2q-5.2 24-22.9 36.4-17.6 12.3-39.3 12.3-27.2 0-46.4-20.4-19.2-20.4-19.2-49.3 0-29.4 18.8-49.6 18.7-20.2 46.8-20.2 32.8 0 51.9 23l-20.1 22q-10.7-17.3-30-17.3-14.2 0-24.2 12.3-10.1 12.3-10.1 29.8 0 17.1 10.1 29.3 10 12.2 24.2 12.2 11.8 0 20.5-7.1 8.7-7.1 8.7-18.9h-31v-23.7z"/>
			</g>
		</g>
	</g>
	<g id="Layer">
		<g id="Layer">
			<g id="Layer">
				<path id="Layer" class="s1" d="m762.9 385.6v26.9h-46.3v26.8h44.4v26.9h-44.4v27.1h46.3v26.9h-77v-134.6z"/>
			</g>
		</g>
	</g>
</svg>